<svg viewBox="0 0 32 32" xmlns="http://www.w3.org/2000/svg"><path d="M17.5618395,14.427775 C16.7043121,15.2879382 15.2956879,15.2879382 14.4381605,14.427775 C13.5806331,13.5676117 13.5806331,12.1544994 14.4381605,11.2945197 C15.2956879,10.4341729 16.7043121,10.4341729 17.5618395,11.2945197 C18.4193669,12.1544994 18.4193669,13.5676117 17.5618395,14.427775 M27.3797468,12.8610556 C27.3797468,6.58628655 22.2847658,1.5 16.0000919,1.5 C9.71505037,1.5 4.62025316,6.58628655 4.62025316,12.8610556 C4.62025316,15.3198709 5.40535487,17.594064 6.73493591,19.4536831 L6.68420117,19.4536831 L15.9352029,30.5 L24.7128642,20.1664789 C24.9040386,19.9392798 25.0856543,19.7038223 25.258998,19.4623086 L25.2656156,19.4536831 L25.2650641,19.4536831 C26.594829,17.594064 27.3797468,15.3198709 27.3797468,12.8610556" fill="#C3D600" fill-rule="evenodd"/></svg>